<mxfile host="app.diagrams.net" agent="Mozilla/5.0 (Windows NT 10.0; Win64; x64; rv:141.0) Gecko/20100101 Firefox/141.0" version="28.0.7">
  <diagram name="Page-1" id="FhGxlcBEW0jEbGx73CxH">
    <mxGraphModel dx="1525" dy="866" grid="1" gridSize="10" guides="1" tooltips="1" connect="1" arrows="1" fold="1" page="1" pageScale="1" pageWidth="850" pageHeight="1100" math="0" shadow="0">
      <root>
        <mxCell id="0" />
        <mxCell id="1" parent="0" />
        <mxCell id="B_K2scWawHYmRrSdKUnB-13" value="" style="edgeStyle=orthogonalEdgeStyle;rounded=0;orthogonalLoop=1;jettySize=auto;html=1;" edge="1" parent="1" source="B_K2scWawHYmRrSdKUnB-1" target="B_K2scWawHYmRrSdKUnB-2">
          <mxGeometry relative="1" as="geometry" />
        </mxCell>
        <mxCell id="B_K2scWawHYmRrSdKUnB-1" value="start" style="ellipse;whiteSpace=wrap;html=1;fillColor=#d5e8d4;gradientColor=#97d077;strokeColor=#82b366;" vertex="1" parent="1">
          <mxGeometry x="305" y="40" width="155" height="60" as="geometry" />
        </mxCell>
        <mxCell id="B_K2scWawHYmRrSdKUnB-2" value="new user" style="rhombus;whiteSpace=wrap;html=1;fillColor=#ffcd28;gradientColor=#ffa500;strokeColor=#d79b00;" vertex="1" parent="1">
          <mxGeometry x="312.5" y="130" width="140" height="80" as="geometry" />
        </mxCell>
        <mxCell id="B_K2scWawHYmRrSdKUnB-4" value="face recognised" style="rhombus;whiteSpace=wrap;html=1;fillColor=#e6d0de;gradientColor=#d5739d;strokeColor=#996185;" vertex="1" parent="1">
          <mxGeometry x="307.5" y="360" width="150" height="80" as="geometry" />
        </mxCell>
        <mxCell id="B_K2scWawHYmRrSdKUnB-5" value="stored in csv file with registration number and date time of entry" style="shape=parallelogram;perimeter=parallelogramPerimeter;whiteSpace=wrap;html=1;fixedSize=1;fillColor=#f8cecc;strokeColor=#b85450;" vertex="1" parent="1">
          <mxGeometry x="220" y="470" width="312.5" height="70" as="geometry" />
        </mxCell>
        <mxCell id="B_K2scWawHYmRrSdKUnB-8" value="end" style="ellipse;whiteSpace=wrap;html=1;fillColor=#cce5ff;strokeColor=#36393d;" vertex="1" parent="1">
          <mxGeometry x="322.5" y="580" width="120" height="60" as="geometry" />
        </mxCell>
        <mxCell id="B_K2scWawHYmRrSdKUnB-9" value="recognize the face" style="shape=parallelogram;perimeter=parallelogramPerimeter;whiteSpace=wrap;html=1;fixedSize=1;fillColor=#d5e8d4;strokeColor=#82b366;" vertex="1" parent="1">
          <mxGeometry x="250" y="250" width="270" height="70" as="geometry" />
        </mxCell>
        <mxCell id="B_K2scWawHYmRrSdKUnB-11" value="give your photography" style="rounded=0;whiteSpace=wrap;html=1;fillColor=#ffff88;strokeColor=#36393d;" vertex="1" parent="1">
          <mxGeometry x="610" y="150" width="130" height="40" as="geometry" />
        </mxCell>
        <mxCell id="B_K2scWawHYmRrSdKUnB-12" value="store the face data in folder on your name" style="rounded=0;whiteSpace=wrap;html=1;fillColor=#ffcc99;strokeColor=#36393d;" vertex="1" parent="1">
          <mxGeometry x="600" y="257.5" width="170" height="55" as="geometry" />
        </mxCell>
        <mxCell id="B_K2scWawHYmRrSdKUnB-15" value="" style="edgeStyle=none;orthogonalLoop=1;jettySize=auto;html=1;rounded=0;entryX=0.5;entryY=0;entryDx=0;entryDy=0;exitX=0.5;exitY=1;exitDx=0;exitDy=0;" edge="1" parent="1" source="B_K2scWawHYmRrSdKUnB-2" target="B_K2scWawHYmRrSdKUnB-9">
          <mxGeometry width="100" relative="1" as="geometry">
            <mxPoint x="330" y="230" as="sourcePoint" />
            <mxPoint x="430" y="230" as="targetPoint" />
            <Array as="points" />
          </mxGeometry>
        </mxCell>
        <mxCell id="B_K2scWawHYmRrSdKUnB-21" value="" style="edgeStyle=none;orthogonalLoop=1;jettySize=auto;html=1;rounded=0;entryX=0.5;entryY=0;entryDx=0;entryDy=0;exitX=0.5;exitY=1;exitDx=0;exitDy=0;" edge="1" parent="1" source="B_K2scWawHYmRrSdKUnB-9" target="B_K2scWawHYmRrSdKUnB-4">
          <mxGeometry width="100" relative="1" as="geometry">
            <mxPoint x="410" y="350" as="sourcePoint" />
            <mxPoint x="440" y="340" as="targetPoint" />
            <Array as="points" />
          </mxGeometry>
        </mxCell>
        <mxCell id="B_K2scWawHYmRrSdKUnB-22" value="" style="edgeStyle=none;orthogonalLoop=1;jettySize=auto;html=1;rounded=0;exitX=0.5;exitY=1;exitDx=0;exitDy=0;entryX=0.529;entryY=-0.019;entryDx=0;entryDy=0;entryPerimeter=0;" edge="1" parent="1" source="B_K2scWawHYmRrSdKUnB-4" target="B_K2scWawHYmRrSdKUnB-5">
          <mxGeometry width="100" relative="1" as="geometry">
            <mxPoint x="340" y="460" as="sourcePoint" />
            <mxPoint x="440" y="460" as="targetPoint" />
            <Array as="points" />
          </mxGeometry>
        </mxCell>
        <mxCell id="B_K2scWawHYmRrSdKUnB-24" value="" style="edgeStyle=none;orthogonalLoop=1;jettySize=auto;html=1;rounded=0;entryX=0.5;entryY=0;entryDx=0;entryDy=0;exitX=0.529;exitY=1.038;exitDx=0;exitDy=0;exitPerimeter=0;" edge="1" parent="1" source="B_K2scWawHYmRrSdKUnB-5" target="B_K2scWawHYmRrSdKUnB-8">
          <mxGeometry width="100" relative="1" as="geometry">
            <mxPoint x="330" y="550" as="sourcePoint" />
            <mxPoint x="430" y="550" as="targetPoint" />
            <Array as="points" />
          </mxGeometry>
        </mxCell>
        <mxCell id="B_K2scWawHYmRrSdKUnB-26" value="" style="endArrow=none;html=1;rounded=0;entryX=0;entryY=0.5;entryDx=0;entryDy=0;exitX=1;exitY=0.5;exitDx=0;exitDy=0;" edge="1" parent="1" source="B_K2scWawHYmRrSdKUnB-2" target="B_K2scWawHYmRrSdKUnB-11">
          <mxGeometry width="50" height="50" relative="1" as="geometry">
            <mxPoint x="510" y="300" as="sourcePoint" />
            <mxPoint x="560" y="250" as="targetPoint" />
          </mxGeometry>
        </mxCell>
        <mxCell id="B_K2scWawHYmRrSdKUnB-27" value="" style="endArrow=classic;html=1;rounded=0;entryX=1;entryY=0.5;entryDx=0;entryDy=0;" edge="1" parent="1" source="B_K2scWawHYmRrSdKUnB-12" target="B_K2scWawHYmRrSdKUnB-9">
          <mxGeometry width="50" height="50" relative="1" as="geometry">
            <mxPoint x="510" y="300" as="sourcePoint" />
            <mxPoint x="560" y="250" as="targetPoint" />
          </mxGeometry>
        </mxCell>
        <mxCell id="B_K2scWawHYmRrSdKUnB-28" value="" style="endArrow=none;html=1;rounded=0;entryX=1;entryY=0.5;entryDx=0;entryDy=0;" edge="1" parent="1" target="B_K2scWawHYmRrSdKUnB-4">
          <mxGeometry width="50" height="50" relative="1" as="geometry">
            <mxPoint x="810" y="400" as="sourcePoint" />
            <mxPoint x="560" y="280" as="targetPoint" />
          </mxGeometry>
        </mxCell>
        <mxCell id="B_K2scWawHYmRrSdKUnB-29" value="" style="endArrow=none;html=1;rounded=0;" edge="1" parent="1">
          <mxGeometry width="50" height="50" relative="1" as="geometry">
            <mxPoint x="810" y="79.33334350585938" as="sourcePoint" />
            <mxPoint x="810" y="400" as="targetPoint" />
          </mxGeometry>
        </mxCell>
        <mxCell id="B_K2scWawHYmRrSdKUnB-30" value="" style="endArrow=none;html=1;rounded=0;" edge="1" parent="1">
          <mxGeometry width="50" height="50" relative="1" as="geometry">
            <mxPoint x="670" y="80" as="sourcePoint" />
            <mxPoint x="810" y="80" as="targetPoint" />
          </mxGeometry>
        </mxCell>
        <mxCell id="B_K2scWawHYmRrSdKUnB-31" value="" style="edgeStyle=none;orthogonalLoop=1;jettySize=auto;html=1;rounded=0;entryX=0.5;entryY=0;entryDx=0;entryDy=0;" edge="1" parent="1" target="B_K2scWawHYmRrSdKUnB-11">
          <mxGeometry width="100" relative="1" as="geometry">
            <mxPoint x="670" y="80" as="sourcePoint" />
            <mxPoint x="730" y="110" as="targetPoint" />
            <Array as="points" />
          </mxGeometry>
        </mxCell>
        <mxCell id="B_K2scWawHYmRrSdKUnB-32" value="" style="endArrow=none;html=1;rounded=0;entryX=0.467;entryY=0.033;entryDx=0;entryDy=0;entryPerimeter=0;" edge="1" parent="1" target="B_K2scWawHYmRrSdKUnB-12">
          <mxGeometry width="50" height="50" relative="1" as="geometry">
            <mxPoint x="680" y="200" as="sourcePoint" />
            <mxPoint x="685" y="260" as="targetPoint" />
            <Array as="points">
              <mxPoint x="680" y="190" />
            </Array>
          </mxGeometry>
        </mxCell>
        <mxCell id="B_K2scWawHYmRrSdKUnB-33" value="yes" style="text;html=1;align=center;verticalAlign=middle;resizable=0;points=[];autosize=1;strokeColor=none;fillColor=none;" vertex="1" parent="1">
          <mxGeometry x="520" y="128" width="40" height="30" as="geometry" />
        </mxCell>
        <mxCell id="B_K2scWawHYmRrSdKUnB-34" value="no" style="text;html=1;align=center;verticalAlign=middle;resizable=0;points=[];autosize=1;strokeColor=none;fillColor=none;" vertex="1" parent="1">
          <mxGeometry x="540" y="368" width="40" height="30" as="geometry" />
        </mxCell>
        <mxCell id="B_K2scWawHYmRrSdKUnB-35" value="yes" style="text;html=1;align=center;verticalAlign=middle;resizable=0;points=[];autosize=1;strokeColor=none;fillColor=none;" vertex="1" parent="1">
          <mxGeometry x="320" y="198" width="40" height="30" as="geometry" />
        </mxCell>
        <mxCell id="B_K2scWawHYmRrSdKUnB-36" value="yes" style="text;html=1;align=center;verticalAlign=middle;resizable=0;points=[];autosize=1;strokeColor=none;fillColor=none;" vertex="1" parent="1">
          <mxGeometry x="300" y="428" width="40" height="30" as="geometry" />
        </mxCell>
      </root>
    </mxGraphModel>
  </diagram>
</mxfile>
